@startuml
class GameObject {
    +add(GameObject)
    +remove(GameObject)
    +getChild(int): GameObject
    +update()
}

class Component {
    +update()
}

class TransformComponent {
    -position: Vector3
    -rotation: Quaternion
    -scale: Vector3
    +setPosition(Vector3)
    +setRotation(Quaternion)
    +setScale(Vector3)
}

class RenderComponent {
    -mesh: Mesh
    -material: Material
}

GameObject --> Component
GameObject --> GameObject

GameObject "1" *--> "n" GameObject : contains
GameObject "1" *--> "n" Component : contains

GameObject --> TransformComponent
GameObject --> RenderComponent

@enduml
